<svg width="18" height="18" viewBox="0 0 18 18" fill="none" xmlns="http://www.w3.org/2000/svg">
<g clip-path="url(#clip0)">
<path d="M2.16197 9.83002C2.12723 9.54053 2.10938 9.25296 2.10938 9C2.10938 5.22414 5.22414 2.10938 9 2.10938C10.7612 2.10938 12.4102 2.8195 13.623 3.92693L13.0148 4.54573C12.8778 4.68279 12.825 4.88315 12.8778 5.07307C12.9411 5.25229 13.0887 5.38948 13.2785 5.43164C13.3846 5.45293 16.872 6.57669 16.6499 6.53206C16.9324 6.62613 17.3502 6.32483 17.2723 5.90982C17.2509 5.80353 16.4788 1.92961 16.5234 2.15154C16.4813 1.96175 16.3441 1.80354 16.1543 1.75081C15.9751 1.69807 15.7746 1.75081 15.6375 1.88786L15.1208 2.39406C13.5282 0.907059 11.3413 0 9 0C4.05354 0 0 4.05354 0 9V9.02101C0 9.31833 0.0135956 9.54808 0.0293884 9.72386C0.0503998 9.95677 0.222061 10.1475 0.451401 10.1935L1.53479 10.4101C1.88745 10.4807 2.20454 10.185 2.16197 9.83002Z" fill="white"/>
<path d="M17.5517 7.80572L16.4652 7.58435C16.1121 7.51239 15.7928 7.80833 15.8362 8.16498C15.8739 8.47273 15.8906 8.77197 15.8906 9.00008C15.8906 12.7758 12.7759 15.8907 8.99999 15.8907C7.23874 15.8907 5.58983 15.1806 4.37694 14.0626L4.98517 13.4543C5.12222 13.3173 5.17496 13.1169 5.12222 12.927C5.05892 12.7477 4.91129 12.6106 4.7215 12.5684C4.61534 12.547 1.12801 11.4234 1.35007 11.468C1.17072 11.4364 0.991366 11.4892 0.87546 11.6156C0.748842 11.7317 0.696108 11.9215 0.727694 12.0903C0.749117 12.1964 1.52132 16.0352 1.47669 15.8133C1.51871 16.0032 1.6559 16.1614 1.84569 16.214C2.06583 16.2692 2.24957 16.2024 2.36246 16.0769L2.86879 15.5707C4.46126 17.0579 6.64809 18.0001 8.99999 18.0001C13.9464 18.0001 18 13.9465 18 9.00008V8.96835C18 8.73462 17.9915 8.50514 17.972 8.27704C17.9519 8.04399 17.7809 7.85255 17.5517 7.80572Z" fill="white"/>
</g>
<defs>
<clipPath id="clip0">
<rect width="18" height="18" fill="white"/>
</clipPath>
</defs>
</svg>
