<svg width="10" height="10" viewBox="0 0 10 10" fill="none" xmlns="http://www.w3.org/2000/svg">
<path fill-rule="evenodd" clip-rule="evenodd" d="M6.75601 4.95182L8.85317 2.8565C9.43178 2.27899 9.43178 1.33873 8.85317 0.761223C8.27381 0.180015 7.335 0.180015 6.75601 0.761223L4.65922 2.8565L2.56243 0.761223C1.98381 0.180015 1.045 0.180015 0.46564 0.761223C-0.112977 1.33873 -0.112977 2.27899 0.46564 2.8565L2.56243 4.95182L0.46564 7.05085C-0.112977 7.62836 -0.112977 8.56867 0.46564 9.14617C1.045 9.72738 1.98381 9.72738 2.56243 9.14617L4.65922 7.05085L6.75601 9.14617C7.335 9.72738 8.27381 9.72738 8.85317 9.14617C9.43178 8.56867 9.43178 7.62836 8.85317 7.05085L6.75601 4.95182Z" fill="#E82653"/>
</svg>
