<svg width="166" height="43" viewBox="0 0 166 43" fill="none" xmlns="http://www.w3.org/2000/svg">
<path d="M164.008 36.8289C159.9 43.695 12.9799 45.6313 4.51349 38.4882C-3.17839 31.9952 -0.0482178 8.75111 6.52727 4.11877C15.4958 -2.20492 151.332 2.23745 158.591 7.20623C165.359 11.8409 168.26 29.7065 164.008 36.8289Z" fill="url(#paint0_radial_2217_708)"/>
<path d="M164.008 36.8289C159.9 43.695 12.9799 45.6313 4.51349 38.4882C-3.17839 31.9952 -0.0482178 8.75111 6.52727 4.11877C15.4958 -2.20492 151.332 2.23745 158.591 7.20623C165.359 11.8409 168.26 29.7065 164.008 36.8289Z" fill="url(#paint1_radial_2217_708)"/>
<path d="M164.008 36.8289C159.9 43.695 12.9799 45.6313 4.51349 38.4882C-3.17839 31.9952 -0.0482178 8.75111 6.52727 4.11877C15.4958 -2.20492 151.332 2.23745 158.591 7.20623C165.359 11.8409 168.26 29.7065 164.008 36.8289Z" fill="url(#paint2_radial_2217_708)"/>
<path d="M163.676 35.6167C159.585 42.2425 13.2576 42.7117 4.82323 35.8273C-2.84195 29.5677 0.1707 8.86404 6.72482 4.39649C15.6613 -1.69375 151.166 2.58155 158.399 7.37181C165.14 11.8416 167.918 28.7483 163.676 35.6167Z" fill="url(#paint3_linear_2217_708)"/>
<path d="M163.676 35.6167C159.585 42.2425 13.2576 42.7117 4.82323 35.8273C-2.84195 29.5677 0.1707 8.86404 6.72482 4.39649C15.6613 -1.69375 151.166 2.58155 158.399 7.37181C165.14 11.8416 167.918 28.7483 163.676 35.6167Z" fill="url(#paint4_linear_2217_708)"/>
<path d="M163.676 35.6167C159.585 42.2425 13.2576 42.7117 4.82323 35.8273C-2.84195 29.5677 0.1707 8.86404 6.72482 4.39649C15.6613 -1.69375 151.166 2.58155 158.399 7.37181C165.14 11.8416 167.918 28.7483 163.676 35.6167Z" fill="url(#paint5_linear_2217_708)"/>
<path d="M162.443 35.0285C158.442 41.4598 14.2511 41.9198 5.99838 35.2345C-1.47983 29.1603 1.44737 9.07002 7.86261 4.73293C16.6014 -1.17651 150.205 2.97291 157.277 7.62356C163.863 11.9607 166.593 28.3661 162.443 35.0285Z" fill="url(#paint6_linear_2217_708)"/>
<path d="M162.443 35.0285C158.442 41.4598 14.2511 41.9198 5.99838 35.2345C-1.47983 29.1603 1.44737 9.07002 7.86261 4.73293C16.6014 -1.17651 150.205 2.97291 157.277 7.62356C163.863 11.9607 166.593 28.3661 162.443 35.0285Z" fill="url(#paint7_linear_2217_708)"/>
<path d="M162.443 35.0285C158.442 41.4598 14.2511 41.9198 5.99838 35.2345C-1.47983 29.1603 1.44737 9.07002 7.86261 4.73293C16.6014 -1.17651 150.205 2.97291 157.277 7.62356C163.863 11.9607 166.593 28.3661 162.443 35.0285Z" fill="url(#paint8_linear_2217_708)"/>
<path style="mix-blend-mode:screen" d="M7.96411 35.358C7.96411 35.358 100.544 41.7389 157.363 36.1087C157.363 36.1087 120.452 38.6789 104.032 36.1087C76.1494 31.7442 15.2928 30.4533 7.96411 35.358Z" fill="url(#paint9_linear_2217_708)"/>
<path d="M10.6135 36.5917C11.1476 35.8547 6.58056 32.5018 5.42677 32.5155C4.27298 32.5292 5.29856 34.7218 5.99831 35.2345C6.69807 35.7471 10.3571 36.9601 10.6135 36.5917Z" fill="white"/>
<path style="mix-blend-mode:screen" d="M157.528 7.65331C157.528 7.65331 42.6096 -3.33476 7.62756 4.83591C7.62756 4.83591 4.54546 7.93482 3.14597 12.8189C3.14597 12.8189 14.2084 18.3438 35.142 18.9572C53.1645 19.4836 118.177 9.62617 133.368 8.40629C148.56 7.18641 157.528 7.65331 157.528 7.65331Z" fill="url(#paint10_linear_2217_708)"/>
<path d="M157.528 8.83426C155.534 7.27666 152.458 6.02391 148.725 5.25015C142.572 3.99823 133.075 4.47199 132.076 4.79241C131.077 5.11283 133.678 5.93676 138.624 6.71721C143.571 7.49766 155.018 9.42933 157.528 8.83426Z" fill="white"/>
<path d="M157.213 9.46826C158.484 9.55066 161.641 13.7619 161.454 14.4531C161.267 15.1442 157.454 12.9471 156.866 11.7844C156.54 11.0118 156.659 10.2167 157.213 9.46826Z" fill="white"/>
<defs>
<radialGradient id="paint0_radial_2217_708" cx="0" cy="0" r="1" gradientUnits="userSpaceOnUse" gradientTransform="translate(81.0327 40.0308) rotate(180) scale(63.6842 51.4844)">
<stop stop-color="#EDBB2C"/>
<stop offset="1" stop-color="#E17635"/>
</radialGradient>
<radialGradient id="paint1_radial_2217_708" cx="0" cy="0" r="1" gradientUnits="userSpaceOnUse" gradientTransform="translate(80.5304 40.0281) rotate(180) scale(63.7387 37.8443)">
<stop stop-color="#A47928"/>
<stop offset="1" stop-color="#F0C269"/>
</radialGradient>
<radialGradient id="paint2_radial_2217_708" cx="0" cy="0" r="1" gradientUnits="userSpaceOnUse" gradientTransform="translate(81.6731 42.6536) rotate(180) scale(80.3033 29.503)">
<stop stop-color="#572982"/>
<stop offset="1" stop-color="#8533DB"/>
</radialGradient>
<linearGradient id="paint3_linear_2217_708" x1="82.9866" y1="40.7915" x2="82.9866" y2="1.38914" gradientUnits="userSpaceOnUse">
<stop stop-color="#FBF239"/>
<stop offset="1" stop-color="#E69523"/>
</linearGradient>
<linearGradient id="paint4_linear_2217_708" x1="82.9901" y1="40.7924" x2="82.9901" y2="1.38846" gradientUnits="userSpaceOnUse">
<stop stop-color="#E4B559"/>
<stop offset="1" stop-color="#F0C269"/>
</linearGradient>
<linearGradient id="paint5_linear_2217_708" x1="82.9887" y1="40.7913" x2="82.9887" y2="1.39223" gradientUnits="userSpaceOnUse">
<stop stop-color="#8932DA"/>
<stop offset="1" stop-color="#913AFF"/>
</linearGradient>
<linearGradient id="paint6_linear_2217_708" x1="82.9866" y1="40.0522" x2="82.9866" y2="1.81483" gradientUnits="userSpaceOnUse">
<stop stop-color="#F0CA30"/>
<stop offset="1" stop-color="#E69523"/>
</linearGradient>
<linearGradient id="paint7_linear_2217_708" x1="82.992" y1="40.0536" x2="82.992" y2="1.81465" gradientUnits="userSpaceOnUse">
<stop stop-color="#EFCB84"/>
<stop offset="1" stop-color="#DEA943"/>
</linearGradient>
<linearGradient id="paint8_linear_2217_708" x1="82.9903" y1="40.0531" x2="82.9903" y2="1.81827" gradientUnits="userSpaceOnUse">
<stop stop-color="#8932DA"/>
<stop offset="1" stop-color="#913AFF"/>
</linearGradient>
<linearGradient id="paint9_linear_2217_708" x1="7.96411" y1="35.3237" x2="157.357" y2="35.3237" gradientUnits="userSpaceOnUse">
<stop stop-color="#DF6144"/>
<stop offset="0.11" stop-color="#CF5A3F"/>
<stop offset="0.32" stop-color="#A54832"/>
<stop offset="0.62" stop-color="#612A1E"/>
<stop offset="0.98" stop-color="#040201"/>
<stop offset="1"/>
</linearGradient>
<linearGradient id="paint10_linear_2217_708" x1="157.528" y1="10.3952" x2="3.14597" y2="10.3952" gradientUnits="userSpaceOnUse">
<stop stop-color="#E69648"/>
<stop offset="0.11" stop-color="#D68C43"/>
<stop offset="0.31" stop-color="#AC7036"/>
<stop offset="0.6" stop-color="#684420"/>
<stop offset="0.96" stop-color="#0B0704"/>
<stop offset="1"/>
</linearGradient>
</defs>
</svg>
