<svg width="192" height="72" viewBox="0 0 192 72" fill="none" xmlns="http://www.w3.org/2000/svg">
<path d="M3.54748 61.3767C10.1687 73.0861 170.692 76.3777 184.357 64.2034C196.775 53.1398 191.714 13.5345 181.102 5.63771C166.631 -5.1232 24.0032 2.43347 12.2911 10.9012C1.36985 18.7979 -3.32015 49.2398 3.54748 61.3767Z" fill="url(#paint0_radial_3436_12391)"/>
<path d="M3.54748 61.3767C10.1687 73.0861 170.692 76.3777 184.357 64.2034C196.775 53.1398 191.714 13.5345 181.102 5.63771C166.631 -5.1232 24.0032 2.43347 12.2911 10.9012C1.36985 18.7979 -3.32015 49.2398 3.54748 61.3767Z" fill="url(#paint1_radial_3436_12391)"/>
<path d="M4.08085 59.3081C10.702 70.5994 170.247 71.4075 183.86 59.67C196.231 48.9996 191.364 13.7248 180.785 6.10885C166.369 -4.26519 24.2718 3.02003 12.6038 11.1851C1.7193 18.7979 -2.76102 47.605 4.08085 59.3081Z" fill="url(#paint2_linear_3436_12391)"/>
<path d="M6.06719 58.3097C12.5265 69.2672 168.654 70.0503 181.959 58.6592C194.072 48.307 189.29 14.0711 178.953 6.68293C164.847 -3.37598 25.824 3.6846 14.4062 11.6001C3.76082 18.9976 -0.62755 46.9529 6.06719 58.3097Z" fill="url(#paint3_linear_3436_12391)"/>
<path d="M6.06719 58.3097C12.5265 69.2672 168.654 70.0503 181.959 58.6592C194.072 48.307 189.29 14.0711 178.953 6.68293C164.847 -3.37598 25.824 3.6846 14.4062 11.6001C3.76082 18.9976 -0.62755 46.9529 6.06719 58.3097Z" fill="url(#paint4_linear_3436_12391)"/>
<path d="M6.06719 58.3097C12.5265 69.2672 168.654 70.0503 181.959 58.6592C194.072 48.307 189.29 14.0711 178.953 6.68293C164.847 -3.37598 25.824 3.6846 14.4062 11.6001C3.76082 18.9976 -0.62755 46.9529 6.06719 58.3097Z" fill="url(#paint5_linear_3436_12391)"/>
<path style="mix-blend-mode:screen" d="M14.0016 11.6625C14.0016 11.6625 122.861 -7.05761 179.336 6.86076C179.336 6.86076 184.302 12.1429 186.568 20.464C186.568 20.464 165.994 26.704 136.946 27.8241C107.897 28.9442 77.517 15.0321 52.993 12.9417C28.4689 10.8512 14.0016 11.6625 14.0016 11.6625Z" fill="url(#paint6_linear_3436_12391)" fill-opacity="0.7"/>
<path style="mix-blend-mode:screen" d="M178.788 58.8682C178.788 58.8682 105.955 69.7508 14.2738 60.1474C14.2738 60.1474 73.8423 64.5154 100.349 60.1474C145.34 52.7124 166.962 50.5097 178.788 58.8682Z" fill="url(#paint7_linear_3436_12391)" fill-opacity="0.7"/>
<path d="M9.92218 16.3986C11.6409 13.7434 14.292 11.6082 17.5071 10.2896C22.8077 8.15867 37.8856 6.02459 38.7464 6.56123C39.6071 7.09787 31.3895 9.62196 27.152 10.9292C22.9144 12.2365 12.0851 17.4126 9.92218 16.3986Z" fill="white" fill-opacity="0.7"/>
<path d="M9.45136 17.4626C8.34784 17.603 5.64051 24.7759 5.80236 25.9552C5.96421 27.1346 9.23802 23.4062 9.753 21.425C10.0346 20.103 9.93106 18.7428 9.45136 17.4626Z" fill="white" fill-opacity="0.7"/>
<path style="mix-blend-mode:screen" d="M61.6483 60.0632C62.1182 60.0392 62.586 60.1339 62.9925 60.3355C63.3989 60.5371 63.7258 60.8363 63.9316 61.1955C64.1375 61.5546 64.2132 61.9575 64.149 62.3531C64.0849 62.7487 63.8839 63.1193 63.5714 63.418C63.2588 63.7167 62.8489 63.9301 62.3934 64.0311C61.9379 64.1321 61.4573 64.1163 61.0124 63.9856C60.5675 63.8549 60.1783 63.6153 59.8941 63.2969C59.6098 62.9786 59.4432 62.5959 59.4155 62.1972C59.3961 61.9326 59.4385 61.6673 59.5403 61.4167C59.6422 61.166 59.8014 60.9349 60.0089 60.7365C60.2164 60.5382 60.468 60.3767 60.7494 60.2611C61.0307 60.1455 61.3362 60.0783 61.6483 60.0632Z" fill="url(#paint8_radial_3436_12391)"/>
<path d="M176.82 61.9476C176.062 60.7963 182.801 55.5454 184.508 55.5672C186.215 55.5891 184.695 59.0211 183.658 59.8229C182.621 60.6247 177.202 62.5248 176.82 61.9476Z" fill="white"/>
<defs>
<radialGradient id="paint0_radial_3436_12391" cx="0" cy="0" r="1" gradientUnits="userSpaceOnUse" gradientTransform="translate(99.0984 66.8336) scale(73.9254 62.7028)">
<stop stop-color="#EDBB2C"/>
<stop offset="1" stop-color="#E17635"/>
</radialGradient>
<radialGradient id="paint1_radial_3436_12391" cx="0" cy="0" r="1" gradientUnits="userSpaceOnUse" gradientTransform="translate(97.5148 71.3057) scale(92.5472 50.2715)">
<stop stop-color="#572982"/>
<stop offset="1" stop-color="#8533DB"/>
</radialGradient>
<linearGradient id="paint2_linear_3436_12391" x1="96.0054" y1="68.13" x2="96.0054" y2="0.992442" gradientUnits="userSpaceOnUse">
<stop stop-color="#8932DA"/>
<stop offset="1" stop-color="#913AFF"/>
</linearGradient>
<linearGradient id="paint3_linear_3436_12391" x1="96.0048" y1="66.871" x2="96.0048" y2="1.71276" gradientUnits="userSpaceOnUse">
<stop stop-color="#F0CA30"/>
<stop offset="1" stop-color="#E69523"/>
</linearGradient>
<linearGradient id="paint4_linear_3436_12391" x1="96.0027" y1="66.8709" x2="96.0027" y2="1.71477" gradientUnits="userSpaceOnUse">
<stop stop-color="#EFCB84"/>
<stop offset="1" stop-color="#DEA943"/>
</linearGradient>
<linearGradient id="paint5_linear_3436_12391" x1="96.0046" y1="66.8701" x2="96.0046" y2="1.72092" gradientUnits="userSpaceOnUse">
<stop stop-color="#8932DA"/>
<stop offset="1" stop-color="#913AFF"/>
</linearGradient>
<linearGradient id="paint6_linear_3436_12391" x1="14.0016" y1="14.8012" x2="186.568" y2="14.8012" gradientUnits="userSpaceOnUse">
<stop stop-color="#E69648"/>
<stop offset="0.11" stop-color="#D68C43"/>
<stop offset="0.31" stop-color="#AC7036"/>
<stop offset="0.6" stop-color="#684420"/>
<stop offset="0.96" stop-color="#0B0704"/>
<stop offset="1"/>
</linearGradient>
<linearGradient id="paint7_linear_3436_12391" x1="178.788" y1="58.812" x2="14.2738" y2="58.812" gradientUnits="userSpaceOnUse">
<stop stop-color="#DF6144"/>
<stop offset="0.11" stop-color="#CF5A3F"/>
<stop offset="0.32" stop-color="#A54832"/>
<stop offset="0.62" stop-color="#612A1E"/>
<stop offset="0.98" stop-color="#040201"/>
<stop offset="1"/>
</linearGradient>
<radialGradient id="paint8_radial_3436_12391" cx="0" cy="0" r="1" gradientUnits="userSpaceOnUse" gradientTransform="translate(775.936 -8.97793) scale(30.7993 26.1212)">
<stop stop-color="#64B05F"/>
<stop offset="0.12" stop-color="#52914E"/>
<stop offset="0.33" stop-color="#355E33"/>
<stop offset="0.54" stop-color="#1E351D"/>
<stop offset="0.72" stop-color="#0E180D"/>
<stop offset="0.88" stop-color="#040603"/>
<stop offset="1"/>
</radialGradient>
</defs>
</svg>
