<svg width="25" height="19" viewBox="0 0 25 19" fill="none" xmlns="http://www.w3.org/2000/svg">
<path d="M24.2188 3.95118C22.6938 3.95118 19.0109 1.70812 17.0453 0.295113C16.9859 0.252343 16.9219 0.219077 16.8531 0.193731C15.5484 -0.268821 13.7828 0.1272 12.5 1.12042C11.2203 0.1272 9.45156 -0.271989 8.14688 0.193731C8.07813 0.219077 8.01406 0.252343 7.95625 0.293529C5.97813 1.70812 2.28281 3.95118 0.78125 3.95118C0.35 3.95118 0 4.30602 0 4.74322C0 6.54908 2.35156 7.91139 5.46875 7.91139C7.175 7.91139 8.73437 7.49161 9.73594 6.74075C11.2281 8.25039 13.7812 8.23296 15.2516 6.75818C16.2641 7.49161 17.8234 7.91139 19.5312 7.91139C22.6484 7.91139 25 6.54908 25 4.74322C25 4.30602 24.65 3.95118 24.2188 3.95118Z" fill="#FF2626"/>
<path d="M24.2188 3.95118C22.6938 3.95118 19.0109 1.70812 17.0453 0.295113C16.9859 0.252343 16.9219 0.219077 16.8531 0.193731C15.5484 -0.268821 13.7828 0.1272 12.5 1.12042C11.2203 0.1272 9.45156 -0.271989 8.14688 0.193731C8.07813 0.219077 8.01406 0.252343 7.95625 0.293529C5.97813 1.70812 2.28281 3.95118 0.78125 3.95118C0.35 3.95118 0 4.30602 0 4.74322C0 6.54908 2.35156 7.91139 5.46875 7.91139C7.175 7.91139 8.73437 7.49161 9.73594 6.74075C11.2281 8.25039 13.7812 8.23296 15.2516 6.75818C16.2641 7.49161 17.8234 7.91139 19.5312 7.91139C22.6484 7.91139 25 6.54908 25 4.74322C25 4.30602 24.65 3.95118 24.2188 3.95118Z" fill="url(#paint0_linear)"/>
<path d="M22.7078 9.49708C19.2625 9.26422 15.7344 9.79172 12.5 11.0241C9.26406 9.79013 5.74062 9.26263 2.29062 9.49708C2.05 9.5145 1.82969 9.64281 1.69375 9.84716C1.55937 10.0515 1.525 10.3065 1.60156 10.541C3.19375 15.355 7.45156 18.6768 12.4484 19C12.4672 19 12.4828 19 12.5 19C12.5172 19 12.5328 19 12.55 18.9984C17.5484 18.6753 21.8062 15.3534 23.3969 10.5394C23.475 10.3065 23.4406 10.0499 23.3047 9.84558C23.1703 9.64281 22.95 9.5145 22.7078 9.49708Z" fill="#FF2626"/>
<path d="M22.7078 9.49708C19.2625 9.26422 15.7344 9.79172 12.5 11.0241C9.26406 9.79013 5.74062 9.26263 2.29062 9.49708C2.05 9.5145 1.82969 9.64281 1.69375 9.84716C1.55937 10.0515 1.525 10.3065 1.60156 10.541C3.19375 15.355 7.45156 18.6768 12.4484 19C12.4672 19 12.4828 19 12.5 19C12.5172 19 12.5328 19 12.55 18.9984C17.5484 18.6753 21.8062 15.3534 23.3969 10.5394C23.475 10.3065 23.4406 10.0499 23.3047 9.84558C23.1703 9.64281 22.95 9.5145 22.7078 9.49708Z" fill="url(#paint1_linear)"/>
<defs>
<linearGradient id="paint0_linear" x1="12.5" y1="0" x2="12.5" y2="19" gradientUnits="userSpaceOnUse">
<stop stop-color="#FF1900"/>
<stop offset="1" stop-color="#FF6548"/>
</linearGradient>
<linearGradient id="paint1_linear" x1="12.5" y1="0" x2="12.5" y2="19" gradientUnits="userSpaceOnUse">
<stop stop-color="#FF1900"/>
<stop offset="1" stop-color="#FF6548"/>
</linearGradient>
</defs>
</svg>
