<svg width="27" height="17" viewBox="0 0 27 17" fill="none" xmlns="http://www.w3.org/2000/svg">
<path d="M24.5244 6.49694C20.8035 6.24888 16.9931 6.81081 13.5 8.12369C10.0052 6.80913 6.19986 6.24719 2.47386 6.49694C2.21398 6.5155 1.97604 6.65219 1.82923 6.86988C1.68411 7.08756 1.64698 7.35925 1.72967 7.609C3.44923 12.7373 8.04767 16.276 13.4443 16.6202C13.4645 16.6202 13.4814 16.6202 13.5 16.6202C13.5185 16.6202 13.5354 16.6202 13.554 16.6186C18.9523 16.2743 23.5507 12.7356 25.2686 7.60731C25.353 7.35925 25.3159 7.08588 25.169 6.86819C25.0239 6.65219 24.786 6.5155 24.5244 6.49694Z" fill="#FF2626" fill-opacity="0.6"/>
<path d="M26.1562 4.20913C24.5092 4.20913 20.5318 1.81963 18.4089 0.314379C18.3448 0.268817 18.2756 0.233379 18.2014 0.206379C16.7923 -0.286371 14.8854 0.135504 13.5 1.19357C12.1179 0.135504 10.2077 -0.289746 8.79861 0.206379C8.72436 0.233379 8.65517 0.268817 8.59274 0.312692C6.45636 1.81963 2.46542 4.20913 0.843735 4.20913C0.377985 4.20913 -1.52588e-05 4.58713 -1.52588e-05 5.05288C-1.52588e-05 6.97663 2.53967 8.42788 5.90624 8.42788C7.74899 8.42788 9.43311 7.98069 10.5148 7.18082C12.1264 8.789 14.8837 8.77044 16.4717 7.19938C17.5652 7.98069 19.2493 8.42788 21.0937 8.42788C24.4603 8.42788 27 6.97663 27 5.05288C27 4.58713 26.622 4.20913 26.1562 4.20913Z" fill="#FF2626" fill-opacity="0.6"/>
<path d="M18.1193 0.72197L18.1197 0.722251L8.59274 0.312692L8.88021 0.721787C8.88029 0.721732 8.88037 0.721678 8.88044 0.721623C8.90376 0.705273 8.93249 0.689921 8.9674 0.677037C10.1811 0.251165 11.9155 0.610237 13.196 1.59058L13.4996 1.82298L13.8035 1.59094C15.0869 0.610735 16.8183 0.254189 18.033 0.677185C18.0672 0.689842 18.0951 0.704773 18.1193 0.72197Z" stroke="#E42323" stroke-opacity="0.6"/>
</svg>
