<svg width="97" height="83" viewBox="0 0 97 83" fill="none" xmlns="http://www.w3.org/2000/svg">
<path d="M81.133 13.9858C76.2757 15.2873 62.6486 11.351 55.1929 8.56892C54.9676 8.48461 54.7354 8.43429 54.495 8.41297C49.9483 8.06657 44.6595 10.8233 41.4135 15.0529C36.4976 13.0103 30.5263 13.2599 26.7646 15.8433C26.5671 15.982 26.3912 16.1416 26.2419 16.321C21.1376 22.4738 11.2645 32.707 6.48187 33.9885C5.10829 34.3566 4.29357 35.7752 4.66331 37.1551C6.1905 42.8546 14.8326 45.1473 24.7612 42.487C30.1958 41.0308 34.8076 38.375 37.3627 35.1505C43.3922 38.6416 51.5094 36.4076 54.9453 30.4981C58.7905 31.9488 64.1123 31.9429 69.5519 30.4854C79.4805 27.825 85.8184 21.5184 84.2912 15.8189C83.9215 14.439 82.5066 13.6178 81.133 13.9858Z" fill="#FF2626"/>
<path d="M81.133 13.9858C76.2757 15.2873 62.6486 11.351 55.1929 8.56892C54.9676 8.48461 54.7354 8.43429 54.495 8.41297C49.9483 8.06657 44.6595 10.8233 41.4135 15.0529C36.4976 13.0103 30.5263 13.2599 26.7646 15.8433C26.5671 15.982 26.3912 16.1416 26.2419 16.321C21.1376 22.4738 11.2645 32.707 6.48187 33.9885C5.10829 34.3566 4.29357 35.7752 4.66331 37.1551C6.1905 42.8546 14.8326 45.1473 24.7612 42.487C30.1958 41.0308 34.8076 38.375 37.3627 35.1505C43.3922 38.6416 51.5094 36.4076 54.9453 30.4981C58.7905 31.9488 64.1123 31.9429 69.5519 30.4854C79.4805 27.825 85.8184 21.5184 84.2912 15.8189C83.9215 14.439 82.5066 13.6178 81.133 13.9858Z" fill="url(#paint0_linear)"/>
<path d="M81.0106 32.779C69.8399 34.9844 59.0486 39.6604 49.7889 46.3104C38.4385 45.1775 26.7699 46.5197 15.9795 50.204C15.2278 50.4644 14.6346 51.0574 14.3744 51.8183C14.1192 52.5779 14.2254 53.4122 14.6676 54.0868C23.81 67.9217 40.1809 74.7721 56.3698 71.5274C56.4295 71.5114 56.4793 71.4981 56.534 71.4834C56.5888 71.4687 56.6385 71.4554 56.6919 71.4357C72.3392 66.1499 83.0916 52.0319 84.0868 35.4806C84.1387 34.679 83.8122 33.8984 83.2064 33.3695C82.607 32.8442 81.7967 32.6273 81.0106 32.779Z" fill="#FF2626"/>
<path d="M81.0106 32.779C69.8399 34.9844 59.0486 39.6604 49.7889 46.3104C38.4385 45.1775 26.7699 46.5197 15.9795 50.204C15.2278 50.4644 14.6346 51.0574 14.3744 51.8183C14.1192 52.5779 14.2254 53.4122 14.6676 54.0868C23.81 67.9217 40.1809 74.7721 56.3698 71.5274C56.4295 71.5114 56.4793 71.4981 56.534 71.4834C56.5888 71.4687 56.6385 71.4554 56.6919 71.4357C72.3392 66.1499 83.0916 52.0319 84.0868 35.4806C84.1387 34.679 83.8122 33.8984 83.2064 33.3695C82.607 32.8442 81.7967 32.6273 81.0106 32.779Z" fill="url(#paint1_linear)"/>
<defs>
<linearGradient id="paint0_linear" x1="40.466" y1="11.5167" x2="56.534" y2="71.4834" gradientUnits="userSpaceOnUse">
<stop stop-color="#FF1900"/>
<stop offset="1" stop-color="#FF6548"/>
</linearGradient>
<linearGradient id="paint1_linear" x1="40.466" y1="11.5167" x2="56.534" y2="71.4834" gradientUnits="userSpaceOnUse">
<stop stop-color="#FF1900"/>
<stop offset="1" stop-color="#FF6548"/>
</linearGradient>
</defs>
</svg>
